<svg width="29" height="29" viewBox="0 0 29 29" fill="none" xmlns="http://www.w3.org/2000/svg">
<path fill-rule="evenodd" clip-rule="evenodd" d="M9.04015 1.288C10.4087 1.22275 10.845 1.20825 14.331 1.20825C17.817 1.20825 18.2533 1.22396 19.6207 1.288C20.988 1.35204 21.9213 1.578 22.738 1.90546C23.5932 2.24017 24.369 2.76338 25.0107 3.44004C25.664 4.10342 26.168 4.90575 26.49 5.79267C26.8073 6.6385 27.0243 7.60517 27.0873 9.01892C27.1503 10.4387 27.1643 10.8906 27.1643 14.4999C27.1643 18.1104 27.1492 18.5623 27.0873 19.9797C27.0255 21.3935 26.8073 22.3601 26.49 23.206C26.168 24.093 25.6631 24.8967 25.0107 25.561C24.369 26.2377 23.5932 26.7597 22.738 27.0932C21.9213 27.4218 20.988 27.6466 19.623 27.7118C18.2533 27.7771 17.817 27.7916 14.331 27.7916C10.845 27.7916 10.4087 27.7759 9.04015 27.7118C7.67515 27.6478 6.74182 27.4218 5.92515 27.0932C5.06872 26.7596 4.29277 26.2368 3.65132 25.561C2.99843 24.8972 2.49318 24.0939 2.17082 23.2072C1.85465 22.3613 1.63765 21.3947 1.57465 19.9809C1.51165 18.5611 1.49765 18.1092 1.49765 14.4999C1.49765 10.8894 1.51282 10.4375 1.57465 9.02134C1.63648 7.60517 1.85465 6.6385 2.17082 5.79267C2.49366 4.90585 2.99929 4.10259 3.65248 3.43884C4.29303 2.76277 5.0682 2.2395 5.92398 1.90546C6.74065 1.578 7.67398 1.35325 9.03898 1.288H9.04015ZM19.5168 3.6805C18.1635 3.61646 17.7575 3.60317 14.331 3.60317C10.9045 3.60317 10.4985 3.61646 9.14515 3.6805C7.89332 3.73971 7.21432 3.956 6.76165 4.13846C6.16315 4.38013 5.73498 4.6665 5.28582 5.13171C4.86004 5.56073 4.53236 6.08301 4.32682 6.66025C4.15065 7.12909 3.94182 7.83234 3.88465 9.12888C3.82282 10.5305 3.80998 10.951 3.80998 14.4999C3.80998 18.0488 3.82282 18.4693 3.88465 19.871C3.94182 21.1675 4.15065 21.8708 4.32682 22.3396C4.53215 22.916 4.85998 23.4392 5.28582 23.8681C5.69998 24.3092 6.20515 24.6487 6.76165 24.8614C7.21432 25.0438 7.89332 25.2601 9.14515 25.3193C10.4985 25.3834 10.9033 25.3967 14.331 25.3967C17.7587 25.3967 18.1635 25.3834 19.5168 25.3193C20.7687 25.2601 21.4477 25.0438 21.9003 24.8614C22.4988 24.6197 22.927 24.3333 23.3762 23.8681C23.802 23.4392 24.1298 22.916 24.3352 22.3396C24.5113 21.8708 24.7202 21.1675 24.7773 19.871C24.8392 18.4693 24.852 18.0488 24.852 14.4999C24.852 10.951 24.8392 10.5305 24.7773 9.12888C24.7202 7.83234 24.5113 7.12909 24.3352 6.66025C24.1018 6.04038 23.8253 5.59692 23.3762 5.13171C22.9619 4.69075 22.4576 4.35138 21.9003 4.13846C21.4477 3.956 20.7687 3.73971 19.5168 3.6805ZM12.6918 18.5974C13.6073 18.9921 14.6266 19.0453 15.5757 18.7481C16.5249 18.4508 17.3449 17.8215 17.8959 16.9676C18.4468 16.1137 18.6944 15.0882 18.5964 14.0663C18.4984 13.0443 18.0608 12.0893 17.3585 11.3643C16.9108 10.9009 16.3694 10.546 15.7734 10.3253C15.1773 10.1046 14.5415 10.0235 13.9116 10.0878C13.2816 10.1522 12.6733 10.3604 12.1304 10.6975C11.5875 11.0345 11.1235 11.4921 10.7718 12.0372C10.4202 12.5822 10.1895 13.2013 10.0966 13.8498C10.0036 14.4983 10.0507 15.16 10.2343 15.7874C10.4179 16.4148 10.7335 16.9922 11.1585 17.4781C11.5834 17.964 12.1071 18.3463 12.6918 18.5974ZM9.66665 9.669C10.2792 9.0346 11.0064 8.53136 11.8067 8.18802C12.607 7.84468 13.4647 7.66797 14.331 7.66797C15.1972 7.66797 16.055 7.84468 16.8553 8.18802C17.6556 8.53136 18.3828 9.0346 18.9953 9.669C19.6078 10.3034 20.0937 11.0566 20.4252 11.8854C20.7567 12.7143 20.9273 13.6027 20.9273 14.4999C20.9273 15.3971 20.7567 16.2855 20.4252 17.1144C20.0937 17.9433 19.6078 18.6964 18.9953 19.3308C17.7583 20.6121 16.0804 21.3319 14.331 21.3319C12.5815 21.3319 10.9037 20.6121 9.66665 19.3308C8.42959 18.0496 7.73462 16.3119 7.73462 14.4999C7.73462 12.688 8.42959 10.9502 9.66665 9.669ZM22.3903 8.68542C22.5421 8.53712 22.6636 8.35878 22.7477 8.16097C22.8317 7.96316 22.8766 7.74989 22.8796 7.53379C22.8827 7.3177 22.8438 7.10316 22.7654 6.9029C22.6869 6.70263 22.5705 6.5207 22.4229 6.36788C22.2754 6.21506 22.0997 6.09446 21.9064 6.01321C21.713 5.93196 21.5059 5.89172 21.2972 5.89487C21.0886 5.89802 20.8827 5.9445 20.6917 6.03155C20.5007 6.1186 20.3285 6.24446 20.1853 6.40167C19.9068 6.70741 19.7544 7.11352 19.7603 7.53379C19.7662 7.95406 19.93 8.3554 20.217 8.6526C20.504 8.94981 20.8915 9.11949 21.2972 9.12561C21.703 9.13174 22.0951 8.97384 22.3903 8.68542Z" fill="white"/>
</svg>
