<svg width="30" height="29" viewBox="0 0 30 29" fill="none" xmlns="http://www.w3.org/2000/svg">
<path d="M28.8996 5.96549C27.8907 6.41258 26.8068 6.71466 25.6673 6.8512C26.843 6.1477 27.7226 5.04047 28.142 3.73612C27.0374 4.39223 25.8284 4.85406 24.5677 5.10153C23.7199 4.19633 22.597 3.59634 21.3733 3.39473C20.1496 3.19312 18.8935 3.40116 17.8001 3.98655C16.7068 4.57194 15.8373 5.50193 15.3266 6.63213C14.8159 7.76234 14.6927 9.02952 14.976 10.2369C12.7378 10.1246 10.5482 9.54282 8.54938 8.52946C6.55055 7.5161 4.78713 6.09377 3.37357 4.35478C2.89024 5.18853 2.61232 6.1552 2.61232 7.1847C2.61178 8.11149 2.84001 9.02408 3.27676 9.8415C3.7135 10.6589 4.34527 11.3559 5.11599 11.8706C4.22215 11.8422 3.34804 11.6007 2.5664 11.1662V11.2387C2.56631 12.5385 3.01594 13.7984 3.839 14.8044C4.66206 15.8105 5.80784 16.5009 7.08195 16.7583C6.25277 16.9827 5.38344 17.0158 4.53961 16.855C4.89909 17.9734 5.59932 18.9515 6.54226 19.6522C7.48521 20.3529 8.62368 20.7412 9.79828 20.7627C7.80433 22.328 5.34181 23.1771 2.80686 23.1734C2.35782 23.1735 1.90916 23.1473 1.4632 23.0948C4.03631 24.7492 7.03161 25.6273 10.0907 25.6239C20.4461 25.6239 26.1072 17.0471 26.1072 9.60862C26.1072 9.36695 26.1011 9.12287 26.0902 8.8812C27.1914 8.08488 28.1419 7.09878 28.8972 5.96912L28.8996 5.96549Z" fill="white"/>
</svg>
