<svg width="29" height="29" viewBox="0 0 29 29" fill="none" xmlns="http://www.w3.org/2000/svg">
<g clip-path="url(#clip0_138_1448)">
<path d="M24.0341 5.42776C22.2491 4.59401 20.3358 3.97776 18.335 3.62734C18.3172 3.6238 18.2987 3.62608 18.2822 3.63388C18.2657 3.64167 18.2519 3.65459 18.2428 3.67084C17.9978 4.11672 17.7248 4.69793 17.5335 5.15709C15.4114 4.82871 13.254 4.82871 11.132 5.15709C10.9189 4.64822 10.6785 4.15203 10.4121 3.67084C10.4031 3.65439 10.3895 3.64118 10.373 3.63298C10.3565 3.62477 10.338 3.62196 10.32 3.62493C8.32031 3.97534 6.40698 4.59159 4.62081 5.42655C4.60544 5.43323 4.59241 5.44461 4.58347 5.45918C0.952808 10.9873 -0.0423588 16.3789 0.446475 21.7028C0.447835 21.7158 0.451743 21.7285 0.45796 21.7399C0.464178 21.7513 0.472575 21.7613 0.482641 21.7693C2.60177 23.3672 4.96537 24.5845 7.47448 25.3701C7.49197 25.3757 7.51067 25.3757 7.52816 25.3701C7.54564 25.3644 7.56108 25.3535 7.57247 25.3387C8.1124 24.5908 8.59086 23.7974 9.00281 22.9667C9.00853 22.9554 9.01182 22.9429 9.01247 22.9301C9.01312 22.9173 9.01111 22.9045 9.00657 22.8926C9.00204 22.8807 8.99508 22.8699 8.98618 22.861C8.97728 22.8521 8.96664 22.8453 8.95498 22.8411C8.20131 22.5471 7.47107 22.1924 6.77098 21.7801C6.7584 21.7727 6.74779 21.7621 6.74012 21.7494C6.73245 21.7367 6.72796 21.7222 6.72703 21.7072C6.72611 21.6922 6.72878 21.6773 6.73482 21.6636C6.74087 21.65 6.75008 21.6381 6.76164 21.6291C6.90864 21.5167 7.05564 21.3995 7.19564 21.2823C7.20824 21.2718 7.22342 21.2651 7.23949 21.2629C7.25556 21.2608 7.27188 21.2633 7.28664 21.2702C11.8681 23.4017 16.83 23.4017 21.3578 21.2702C21.3726 21.2629 21.3891 21.26 21.4054 21.262C21.4217 21.2639 21.4371 21.2705 21.45 21.2811C21.59 21.3995 21.7358 21.5167 21.884 21.6291C21.8956 21.6379 21.905 21.6497 21.9113 21.6632C21.9175 21.6767 21.9204 21.6916 21.9197 21.7066C21.919 21.7215 21.9147 21.7361 21.9073 21.7489C21.8998 21.7618 21.8894 21.7725 21.877 21.7801C21.1793 22.1958 20.4536 22.5474 19.6918 22.8398C19.6801 22.8442 19.6695 22.8512 19.6605 22.8602C19.6516 22.8692 19.6447 22.8801 19.6402 22.8921C19.6356 22.9041 19.6336 22.9169 19.6343 22.9298C19.6349 22.9427 19.6383 22.9553 19.644 22.9667C20.064 23.7968 20.5446 24.5871 21.0731 25.3375C21.0841 25.3529 21.0994 25.3644 21.117 25.3704C21.1345 25.3765 21.1534 25.3768 21.1711 25.3713C23.6846 24.5879 26.052 23.37 28.1735 21.7693C28.1838 21.7618 28.1925 21.7521 28.1989 21.7408C28.2054 21.7296 28.2094 21.717 28.2108 21.704C28.7941 15.5488 27.2331 10.2007 24.0703 5.46159C24.0626 5.44619 24.0497 5.43419 24.0341 5.42776ZM9.68764 18.4608C8.30864 18.4608 7.17114 17.1691 7.17114 15.585C7.17114 13.9997 8.28648 12.7092 9.68764 12.7092C11.0993 12.7092 12.2263 14.0106 12.2041 15.585C12.2041 17.1703 11.0888 18.4608 9.68764 18.4608ZM18.9918 18.4608C17.6116 18.4608 16.4753 17.1691 16.4753 15.585C16.4753 13.9997 17.5895 12.7092 18.9918 12.7092C20.4035 12.7092 21.5305 14.0106 21.5083 15.585C21.5083 17.1703 20.4046 18.4608 18.9918 18.4608Z" fill="white"/>
</g>
<defs>
<clipPath id="clip0_138_1448">
<rect width="28" height="29" fill="white" transform="translate(0.330994)"/>
</clipPath>
</defs>
</svg>
