<svg width="30" height="29" viewBox="0 0 30 29" fill="none" xmlns="http://www.w3.org/2000/svg">
<path d="M22.9631 6.537L21.4164 7.74533L14.831 12.6391L8.24558 7.697L6.69891 6.48866C6.33455 6.18724 5.88975 5.99934 5.41964 5.94824C4.94952 5.89713 4.47474 5.98508 4.05412 6.20118C3.6335 6.41728 3.28552 6.75203 3.0533 7.16397C2.82107 7.5759 2.71481 8.04692 2.74766 8.51866V22.5232C2.74766 22.9591 2.9208 23.3771 3.22898 23.6853C3.53717 23.9934 3.95516 24.1666 4.391 24.1666H8.24558V14.8382L14.831 19.7803L21.4164 14.8382V24.1666H25.271C25.7068 24.1666 26.1248 23.9934 26.433 23.6853C26.7412 23.3771 26.9143 22.9591 26.9143 22.5232V8.51866C26.937 8.05099 26.8234 7.5868 26.5872 7.18251C26.351 6.77823 26.0024 6.45126 25.5839 6.24135C25.1654 6.03145 24.6949 5.94764 24.2296 6.00013C23.7643 6.05261 23.3243 6.23912 22.9631 6.537Z" fill="white"/>
</svg>
