<svg width="190" height="29" viewBox="0 0 190 29" fill="none" xmlns="http://www.w3.org/2000/svg">
<g clip-path="url(#clip0_90_2522)">
<path d="M14.4127 0H40.3142C44.2302 0 47.7903 1.59768 50.3691 4.17654C52.948 6.75541 54.5544 10.3155 54.5544 14.2315C54.5544 18.1476 52.948 21.7076 50.3691 24.2865C47.7903 26.8653 44.2302 28.4717 40.3142 28.4717H35.7903H34.9741L34.5139 27.7684L31.4748 23.0969H23.2607L20.2216 27.7684L19.7614 28.4717H18.9365H14.4127C10.4966 28.4717 6.93656 26.8653 4.3577 24.2865C1.77883 21.7076 0.181152 18.1476 0.181152 14.2315C0.181152 10.3155 1.77883 6.75541 4.3577 4.17654C6.93656 1.59768 10.4966 0 14.4127 0ZM40.3142 3.05643H14.4127C11.3475 3.05643 8.55161 4.31547 6.51977 6.33862C4.49662 8.37045 3.23758 11.1664 3.23758 14.2315C3.23758 17.3053 4.49662 20.1012 6.51977 22.1244C8.55161 24.1562 11.3475 25.4066 14.4127 25.4066H18.1116L20.7426 21.369L21.1594 20.7351L21.6109 20.0318H22.4358H23.1999H31.5356H32.2997H33.1159L33.5761 20.7351L33.9842 21.369L36.6152 25.4066H40.3142C43.388 25.4066 46.1839 24.1562 48.2071 22.1244C50.2302 20.1012 51.4893 17.3053 51.4893 14.2315C51.4893 11.1664 50.2302 8.37045 48.2071 6.33862C46.1839 4.31547 43.388 3.05643 40.3142 3.05643Z" fill="white"/>
<path fill-rule="evenodd" clip-rule="evenodd" d="M10.4618 13.7539C11.1564 13.7539 12.0855 13.2416 12.8235 13.6931C13.44 14.0752 13.058 14.327 13.058 14.7177C13.058 14.9435 13.7874 15.3256 13.7874 16.0463C13.7874 16.628 13.4835 16.8364 13.4835 17.3227C13.4835 17.5224 14.482 20.0405 14.4994 20.1099C14.5515 20.4746 14.317 20.8132 15.4892 20.5354C16.3575 20.3357 17.0522 19.5108 17.113 18.8335C17.2953 18.8161 17.4169 18.738 17.4863 18.5991C17.6079 18.3559 17.33 18.0434 17.5905 17.6787C17.7208 17.505 18.3807 17.3227 18.3807 16.8364C18.3807 16.4109 18.0681 16.0289 18.0942 15.5774C18.1289 14.9956 18.3112 14.9175 18.6933 14.6049C19.0927 14.2836 20.0131 13.3892 20.0131 12.7293C20.0131 12.382 19.5963 12.6685 19.2837 12.6685C18.8235 12.6685 18.728 12.4254 18.5196 12.1649C18.2157 11.7916 17.9031 11.4269 17.8163 10.9319C17.5732 9.57738 16.6701 10.0636 17.2172 9.44714C17.66 8.9522 16.9914 9.23875 15.8018 8.83933L15.1419 8.67435C14.8554 8.69171 14.9943 9.03904 14.6904 9.03904C14.4646 9.03904 14.3257 8.90011 14.126 8.82196C13.961 8.76118 13.605 8.69171 13.4227 8.67435C13.5095 8.29229 13.5095 8.21415 13.4227 7.83209C13.0059 7.92761 12.5023 7.98839 12.0855 8.06653C10.8612 8.30966 10.4531 8.06653 10.0189 9.13455C9.85395 9.53397 9.55872 9.59475 9.23745 9.93339C8.27363 10.9319 8.83803 10.7756 8.75988 11.9392C8.74252 12.217 8.70778 12.0694 8.76857 12.2518C8.84671 12.4688 9.2635 12.9377 9.42848 13.1548C9.66292 13.4761 9.92341 13.7539 10.4618 13.7539Z" fill="white"/>
<path d="M39.8628 7.92761C40.4445 7.92761 40.9742 8.16205 41.3563 8.54411C41.7383 8.92616 41.9728 9.44714 41.9728 10.0289C41.9728 10.6107 41.7383 11.1403 41.3563 11.5224C40.9742 11.9044 40.4445 12.1389 39.8628 12.1389C39.281 12.1389 38.76 11.9044 38.378 11.5224C37.9959 11.1403 37.7615 10.6107 37.7615 10.0289C37.7615 9.44714 37.9959 8.92616 38.378 8.54411C38.76 8.16205 39.281 7.92761 39.8628 7.92761Z" fill="white"/>
<path d="M39.8628 16.3762C40.4445 16.3762 40.9742 16.6107 41.3563 16.9927C41.7383 17.3748 41.9728 17.9044 41.9728 18.4775C41.9728 19.0593 41.7383 19.5889 41.3563 19.971C40.9742 20.3531 40.4445 20.5875 39.8628 20.5875C39.281 20.5875 38.76 20.3531 38.378 19.971C37.9959 19.5889 37.7615 19.0593 37.7615 18.4775C37.7615 17.9044 37.9959 17.3748 38.378 16.9927C38.76 16.6107 39.281 16.3762 39.8628 16.3762Z" fill="white"/>
<path d="M46.1927 14.2576C46.1927 14.8393 45.9583 15.3603 45.5762 15.7424C45.2029 16.1244 44.6732 16.3675 44.0914 16.3675C43.5097 16.3675 42.98 16.1244 42.5979 15.7424C42.2159 15.369 41.9814 14.8393 41.9814 14.2576C41.9814 13.6758 42.2159 13.1461 42.5979 12.7641C42.98 12.382 43.5097 12.1476 44.0914 12.1476C44.6732 12.1476 45.2029 12.382 45.5762 12.7641C45.9583 13.1461 46.1927 13.6758 46.1927 14.2576Z" fill="white"/>
<path d="M37.744 14.2576C37.744 14.8393 37.5095 15.369 37.1275 15.7424C36.7454 16.1244 36.2245 16.3675 35.6427 16.3675C35.0609 16.3675 34.5313 16.1244 34.1492 15.7424C33.7672 15.369 33.5327 14.8393 33.5327 14.2576C33.5327 13.6758 33.7672 13.1461 34.1492 12.7641C34.5313 12.382 35.0609 12.1476 35.6427 12.1476C36.2245 12.1476 36.7454 12.382 37.1275 12.7641C37.5095 13.1461 37.744 13.6758 37.744 14.2576Z" fill="white"/>
<path d="M77.9726 2.466L77.4951 6.32127H69.8019L69.0899 12.0868H72.9365L73.0494 11.1317H70.1666L70.6528 7.27641H77.3822L76.3142 15.9421H64.7744L66.4242 2.466H77.9726ZM79.9263 2.466H91.4748L89.8163 15.9421H85.9697L86.3257 13.0506H82.4791L82.1231 15.9421H78.2765L79.9263 2.466ZM83.304 6.32127L82.948 9.20405H86.7946L87.1506 6.32127H83.304ZM107.165 15.9421H103.318L104.499 6.32127H102.58L101.391 15.9421H97.5442L98.7251 6.32127H96.8062L95.6253 15.9421H91.77L93.4285 2.466H108.815L107.165 15.9421ZM113.434 12.0868H121.136L120.667 15.9421H109.119L110.777 2.466H122.317L121.848 6.32127H114.146L114.033 7.27641H121.735L121.249 11.1317H113.556L113.434 12.0868ZM124.271 2.466H128.126L127.006 11.5832L130.766 12.2171L131.972 2.466H135.819L134.048 16.8972L122.734 14.9783L124.271 2.466ZM140.438 12.0868H148.132L147.663 15.9421H136.123L137.773 2.466H149.321L148.844 6.32127H141.15L141.038 7.27641H148.731L148.253 11.1317H140.56L140.438 12.0868ZM162.823 2.466L161.747 11.1317H159.576L161.764 15.9421H157.318L155.13 11.1317H154.053L153.472 15.9421H149.625L151.275 2.466H162.823ZM158.499 6.32127H154.653L154.54 7.27641H158.386L158.499 6.32127ZM176.325 2.466L175.848 6.32127H168.155L168.033 7.27641H175.735L174.667 15.9421H163.119L163.596 12.0868H171.289L171.402 11.1317H163.709L164.777 2.466H176.325ZM180.945 12.0868H188.638L188.169 15.9421H176.621L178.279 2.466H189.819L189.35 6.32127H181.657L181.535 7.27641H189.237L188.751 11.1317H181.058L180.945 12.0868Z" fill="white"/>
<path d="M98.0652 19.8321H103.353L102.598 25.9971H100.835L101 24.6772H99.2375L99.0725 25.9971H97.3098L98.0652 19.8321ZM99.6108 21.5948L99.4545 22.9146H101.217L101.373 21.5948H99.6108ZM114.85 19.8321L114.632 21.5948H111.107L111.055 22.0376H114.58L114.355 23.8002H110.829L110.56 25.9971H108.797L109.562 19.8321H114.85ZM126.337 19.8321L125.842 23.8002H124.852L125.851 25.9971H123.819L122.821 23.8002H122.326L122.056 25.9971H120.294L121.049 19.8321H126.337ZM124.357 21.5948H122.595L122.543 22.0376H124.305L124.357 21.5948ZM133.544 25.9971H131.781L132.537 19.8321H134.3L133.544 25.9971ZM145.796 19.8321L145.579 21.5948H142.054L141.724 24.2344H145.249L145.032 25.9971H139.753L140.508 19.8321H145.796ZM151.996 19.8321H157.284L156.528 25.9971H154.766L154.93 24.6772H153.168L153.003 25.9971H151.24L151.996 19.8321ZM153.541 21.5948L153.385 22.9146H155.139L155.304 21.5948H153.541Z" fill="white"/>
<path d="M92.9942 23.2879H65.9292V22.0463H92.9942V23.2879Z" fill="white"/>
<path d="M188.664 23.2879H161.599V22.0463H188.664V23.2879Z" fill="white"/>
</g>
<defs>
<clipPath id="clip0_90_2522">
<rect width="189.662" height="28.4717" fill="white" transform="translate(0.168945)"/>
</clipPath>
</defs>
</svg>
