<svg width="107" height="109" viewBox="0 0 107 109" fill="none" xmlns="http://www.w3.org/2000/svg">
<path d="M17.4609 32.3554L27.3311 37.2822L42.7374 24.4986L40.5703 13.1801M47.5542 72.9686L45.0544 94.5079C44.776 96.9049 43.8319 99.1632 42.3416 100.997C40.8512 102.832 38.8815 104.159 36.6814 104.812C34.4814 105.466 32.1498 105.415 29.9814 104.667C27.8131 103.92 25.9053 102.508 24.4994 100.611L20.5933 95.3397L5.40456 63.4509C3.37384 59.189 2.80488 54.3097 3.79447 49.6432C4.78407 44.9766 7.27109 40.8112 10.8324 37.8555L47.1988 7.68002C50.7607 4.72514 55.1766 3.16283 59.6951 3.2589C64.2137 3.35498 68.5558 5.1035 71.9826 8.20698L97.6245 31.4221L101.528 36.6897C102.933 38.587 103.773 40.8842 103.942 43.2909C104.111 45.6977 103.602 48.1058 102.477 50.2109C101.353 52.3161 99.6649 54.0236 97.6262 55.1178C95.5875 56.2119 93.2898 56.6434 91.0236 56.3578L70.6635 53.7933L47.5542 72.9686Z" stroke="white" stroke-width="6" stroke-linecap="round" stroke-linejoin="round"/>
</svg>
