<svg width="169" height="19" viewBox="0 0 169 19" fill="none" xmlns="http://www.w3.org/2000/svg">
<rect x="69" y="3" width="100" height="4" fill="#D9D9D9"/>
<rect x="69" y="11" width="100" height="4" fill="#D9D9D9"/>
<path d="M1.27841 3.36364H3.40909L7.11364 12.4091H7.25L10.9545 3.36364H13.0852V15H11.4148V6.57955H11.3068L7.875 14.983H6.48864L3.05682 6.57386H2.94886V15H1.27841V3.36364ZM17.8778 15V3.36364H25.1732V4.875H19.6335V8.42045H24.7926V9.92614H19.6335V13.4886H25.2414V15H17.8778ZM39.1505 3.36364V15H37.5368L31.622 6.46591H31.5141V15H29.7584V3.36364H31.3834L37.3039 11.9091H37.4118V3.36364H39.1505ZM51.4345 3.36364H53.1959V11.017C53.1959 11.8314 53.0046 12.553 52.622 13.1818C52.2394 13.8068 51.7015 14.2992 51.0084 14.6591C50.3152 15.0152 49.5027 15.1932 48.5709 15.1932C47.6428 15.1932 46.8322 15.0152 46.139 14.6591C45.4459 14.2992 44.908 13.8068 44.5254 13.1818C44.1428 12.553 43.9515 11.8314 43.9515 11.017V3.36364H45.7072V10.875C45.7072 11.4015 45.8227 11.8693 46.0538 12.2784C46.2887 12.6875 46.6201 13.0095 47.0481 13.2443C47.4762 13.4754 47.9837 13.5909 48.5709 13.5909C49.1618 13.5909 49.6712 13.4754 50.0993 13.2443C50.5311 13.0095 50.8606 12.6875 51.0879 12.2784C51.319 11.8693 51.4345 11.4015 51.4345 10.875V3.36364Z" fill="white"/>
</svg>
