<svg width="103" height="114" viewBox="0 0 103 114" fill="none" xmlns="http://www.w3.org/2000/svg">
<path d="M90.333 70.5498L79.6011 68.4539L67.7909 84.9772L72.6178 95.3347M51.436 39.4165L48.6546 17.9158C48.3453 15.5231 48.713 13.0845 49.7113 10.9084C50.7096 8.73229 52.2935 6.91634 54.263 5.69016C56.2324 4.46398 58.4989 3.88262 60.7758 4.01958C63.0527 4.15655 65.2378 5.00567 67.055 6.45962L72.1038 10.5007L94.4849 37.2271C97.4768 40.7989 99.2045 45.3626 99.374 50.1418C99.5434 54.9211 98.1442 59.6205 95.4143 63.4406L67.5365 102.444C64.8059 106.263 60.9135 108.967 56.5216 110.096C52.1297 111.224 47.5096 110.707 43.4474 108.632L13.0531 93.1172L8.00817 89.0792C6.19149 87.6246 4.8246 85.6307 4.08031 83.3494C3.33602 81.0682 3.24776 78.6021 3.82668 76.263C4.4056 73.9238 5.6257 71.8166 7.33274 70.2078C9.03977 68.599 11.1571 67.5608 13.417 67.2244L33.7208 64.2014L51.436 39.4165Z" stroke="#406AFF" stroke-width="6" stroke-linecap="round" stroke-linejoin="round"/>
</svg>
