<svg width="20" height="21" viewBox="0 0 20 21" fill="none" xmlns="http://www.w3.org/2000/svg">
<path d="M17 2.79688H15V1.79688C15 1.53166 14.8946 1.2773 14.7071 1.08977C14.5196 0.902232 14.2652 0.796875 14 0.796875C13.7348 0.796875 13.4804 0.902232 13.2929 1.08977C13.1054 1.2773 13 1.53166 13 1.79688V2.79688H7V1.79688C7 1.53166 6.89464 1.2773 6.70711 1.08977C6.51957 0.902232 6.26522 0.796875 6 0.796875C5.73478 0.796875 5.48043 0.902232 5.29289 1.08977C5.10536 1.2773 5 1.53166 5 1.79688V2.79688H3C2.20435 2.79688 1.44129 3.11295 0.87868 3.67555C0.316071 4.23816 0 5.00123 0 5.79688V17.7969C0 18.5925 0.316071 19.3556 0.87868 19.9182C1.44129 20.4808 2.20435 20.7969 3 20.7969H17C17.7956 20.7969 18.5587 20.4808 19.1213 19.9182C19.6839 19.3556 20 18.5925 20 17.7969V5.79688C20 5.00123 19.6839 4.23816 19.1213 3.67555C18.5587 3.11295 17.7956 2.79688 17 2.79688ZM18 17.7969C18 18.0621 17.8946 18.3164 17.7071 18.504C17.5196 18.6915 17.2652 18.7969 17 18.7969H3C2.73478 18.7969 2.48043 18.6915 2.29289 18.504C2.10536 18.3164 2 18.0621 2 17.7969V10.7969H18V17.7969ZM18 8.79688H2V5.79688C2 5.53166 2.10536 5.2773 2.29289 5.08977C2.48043 4.90223 2.73478 4.79688 3 4.79688H5V5.79688C5 6.06209 5.10536 6.31645 5.29289 6.50398C5.48043 6.69152 5.73478 6.79688 6 6.79688C6.26522 6.79688 6.51957 6.69152 6.70711 6.50398C6.89464 6.31645 7 6.06209 7 5.79688V4.79688H13V5.79688C13 6.06209 13.1054 6.31645 13.2929 6.50398C13.4804 6.69152 13.7348 6.79688 14 6.79688C14.2652 6.79688 14.5196 6.69152 14.7071 6.50398C14.8946 6.31645 15 6.06209 15 5.79688V4.79688H17C17.2652 4.79688 17.5196 4.90223 17.7071 5.08977C17.8946 5.2773 18 5.53166 18 5.79688V8.79688Z" fill="white"/>
</svg>
