<svg width="20" height="25" viewBox="0 0 20 25" fill="none" xmlns="http://www.w3.org/2000/svg">
<path d="M19.0883 7.08856C18.9785 6.94951 18.8384 6.83733 18.6787 6.76051C18.519 6.6837 18.3439 6.64427 18.1667 6.64522H5.33334V6.06189C5.3348 5.55402 5.50191 5.06048 5.80933 4.65621C6.11674 4.25195 6.54766 3.95901 7.03668 3.82189C7.35083 4.12503 7.76695 4.29979 8.20334 4.31189H9.37001C9.83414 4.31189 10.2793 4.12752 10.6074 3.79933C10.9356 3.47114 11.12 3.02602 11.12 2.56189C11.12 2.09776 10.9356 1.65264 10.6074 1.32445C10.2793 0.996264 9.83414 0.81189 9.37001 0.81189H8.20334C7.94034 0.812252 7.68084 0.872288 7.4444 0.987477C7.20796 1.10267 7.00074 1.27001 6.83834 1.47689C5.76299 1.67084 4.78979 2.23601 4.08836 3.07387C3.38694 3.91174 3.00178 4.96918 3.00001 6.06189V6.64522H1.83334C1.65614 6.64427 1.48104 6.6837 1.32134 6.76051C1.16164 6.83733 1.02155 6.94951 0.911678 7.08856C0.794806 7.22708 0.711816 7.39093 0.66929 7.56712C0.626763 7.7433 0.625868 7.92697 0.666678 8.10356L1.39001 11.0086C1.56272 11.6777 1.92965 12.2807 2.44454 12.7416C2.95944 13.2025 3.59925 13.5007 4.28334 13.5986L5.19334 21.7652H4.16668C3.85726 21.7652 3.56051 21.8881 3.34172 22.1069C3.12293 22.3257 3.00001 22.6225 3.00001 22.9319C3.00001 23.2413 3.12293 23.5381 3.34172 23.7568C3.56051 23.9756 3.85726 24.0986 4.16668 24.0986H15.8333C16.1428 24.0986 16.4395 23.9756 16.6583 23.7568C16.8771 23.5381 17 23.2413 17 22.9319C17 22.6225 16.8771 22.3257 16.6583 22.1069C16.4395 21.8881 16.1428 21.7652 15.8333 21.7652H14.8067L15.7167 13.5986C16.3959 13.4935 17.0292 13.1907 17.5375 12.7281C18.0458 12.2654 18.4067 11.6633 18.575 10.9969L19.3333 8.10356C19.3742 7.92697 19.3733 7.7433 19.3307 7.56712C19.2882 7.39093 19.2052 7.22708 19.0883 7.08856ZM12.45 21.8119H7.55001L6.64001 13.6452H13.36L12.45 21.8119ZM16.3117 10.4369C16.2478 10.6957 16.0972 10.9249 15.8849 11.0862C15.6726 11.2476 15.4115 11.3313 15.145 11.3236H4.82001C4.5535 11.3313 4.29238 11.2476 4.0801 11.0862C3.86783 10.9249 3.71722 10.6957 3.65334 10.4369L3.32668 8.97856H16.6733L16.3117 10.4369Z" fill="white"/>
</svg>
