<svg width="20" height="20" viewBox="0 0 20 20" fill="none" xmlns="http://www.w3.org/2000/svg">
<path d="M18.3334 17.0337V10.3781C18.3334 9.91503 18.2408 9.45685 18.0613 9.0316C17.8817 8.60635 17.619 8.22298 17.2892 7.90499L11.145 1.97909C10.8356 1.68052 10.4259 1.51416 10 1.51416C9.57417 1.51416 9.16447 1.68052 8.85502 1.97909L2.71085 7.90499C2.38104 8.22298 2.11831 8.60635 1.93877 9.0316C1.75922 9.45685 1.66664 9.91503 1.66669 10.3781V17.0337C1.66669 17.4848 1.84228 17.9174 2.15484 18.2364C2.4674 18.5554 2.89133 18.7346 3.33335 18.7346H16.6667C17.1087 18.7346 17.5326 18.5554 17.8452 18.2364C18.1578 17.9174 18.3334 17.4848 18.3334 17.0337Z" stroke="white" stroke-width="2.17" stroke-linecap="round" stroke-linejoin="round"/>
</svg>
