<svg width="20" height="20" viewBox="0 0 20 20" fill="none" xmlns="http://www.w3.org/2000/svg">
<path d="M18 4.13359H15V2.09252C15 0.966872 14.103 0.0514526 13 0.0514526H7C5.897 0.0514526 5 0.966872 5 2.09252V4.13359H2C0.897 4.13359 0 5.04901 0 6.17466V17.4005C0 18.5262 0.897 19.4416 2 19.4416H18C19.103 19.4416 20 18.5262 20 17.4005V6.17466C20 5.04901 19.103 4.13359 18 4.13359ZM13 2.09252V4.13359H7V2.09252H13ZM6 6.17466H18V9.23626H2V6.17466H6ZM2 17.4005V11.2773H8V13.3184H12V11.2773H18L18.001 17.4005H2Z" fill="white"/>
</svg>
