<svg width="20" height="22" viewBox="0 0 20 22" fill="none" xmlns="http://www.w3.org/2000/svg">
<path d="M19.2154 17.6541C18.7137 16.451 17.9856 15.3583 17.0718 14.4367C16.1607 13.5124 15.0814 12.7755 13.8936 12.2666C13.883 12.2612 13.8723 12.2586 13.8617 12.2532C15.5186 11.0416 16.5957 9.0681 16.5957 6.84152C16.5957 3.15298 13.6436 0.164459 10 0.164459C6.35641 0.164459 3.4043 3.15298 3.4043 6.84152C3.4043 9.0681 4.48142 11.0416 6.13832 12.2559C6.12769 12.2612 6.11705 12.2639 6.10641 12.2693C4.91493 12.7782 3.84579 13.5078 2.92824 14.4394C2.01524 15.3617 1.2873 16.4543 0.784636 17.6567C0.290815 18.834 0.0244864 20.0961 6.65049e-05 21.3749C-0.000643344 21.4036 0.00433542 21.4322 0.0147096 21.459C0.0250837 21.4857 0.0406433 21.5101 0.0604714 21.5307C0.0802996 21.5513 0.103995 21.5676 0.130162 21.5788C0.156329 21.5899 0.184437 21.5957 0.212831 21.5957H1.80857C1.92559 21.5957 2.01867 21.5014 2.02133 21.3857C2.07452 19.3072 2.89898 17.3606 4.35642 15.8852C5.86439 14.3586 7.86704 13.5186 10 13.5186C12.133 13.5186 14.1356 14.3586 15.6436 15.8852C17.101 17.3606 17.9255 19.3072 17.9787 21.3857C17.9813 21.5041 18.0744 21.5957 18.1914 21.5957H19.7872C19.8156 21.5957 19.8437 21.5899 19.8698 21.5788C19.896 21.5676 19.9197 21.5513 19.9395 21.5307C19.9594 21.5101 19.9749 21.4857 19.9853 21.459C19.9957 21.4322 20.0006 21.4036 19.9999 21.3749C19.9733 20.0879 19.71 18.836 19.2154 17.6541ZM10 11.4724C8.77926 11.4724 7.63033 10.9905 6.76598 10.1154C5.90162 9.24042 5.42556 8.07731 5.42556 6.84152C5.42556 5.60573 5.90162 4.44262 6.76598 3.56761C7.63033 2.69259 8.77926 2.21066 10 2.21066C11.2207 2.21066 12.3697 2.69259 13.234 3.56761C14.0984 4.44262 14.5744 5.60573 14.5744 6.84152C14.5744 8.07731 14.0984 9.24042 13.234 10.1154C12.3697 10.9905 11.2207 11.4724 10 11.4724Z" fill="white"/>
</svg>
