<svg width="55" height="29" viewBox="0 0 55 29" fill="none" xmlns="http://www.w3.org/2000/svg">
<path d="M14.4127 0H40.3142C44.2302 0 47.7903 1.59768 50.3691 4.17654C52.948 6.75541 54.5544 10.3155 54.5544 14.2315C54.5544 18.1476 52.948 21.7076 50.3691 24.2865C47.7903 26.8653 44.2302 28.4717 40.3142 28.4717H35.7903H34.9741L34.5139 27.7684L31.4748 23.0969H23.2607L20.2216 27.7684L19.7614 28.4717H18.9365H14.4127C10.4966 28.4717 6.93656 26.8653 4.3577 24.2865C1.77883 21.7076 0.181152 18.1476 0.181152 14.2315C0.181152 10.3155 1.77883 6.75541 4.3577 4.17654C6.93656 1.59768 10.4966 0 14.4127 0ZM40.3142 3.05643H14.4127C11.3475 3.05643 8.55161 4.31547 6.51977 6.33862C4.49662 8.37045 3.23758 11.1664 3.23758 14.2315C3.23758 17.3053 4.49662 20.1012 6.51977 22.1244C8.55161 24.1562 11.3475 25.4066 14.4127 25.4066H18.1116L20.7426 21.369L21.1594 20.7351L21.6109 20.0318H22.4358H23.1999H31.5356H32.2997H33.1159L33.5761 20.7351L33.9842 21.369L36.6152 25.4066H40.3142C43.388 25.4066 46.1839 24.1562 48.2071 22.1244C50.2302 20.1012 51.4893 17.3053 51.4893 14.2315C51.4893 11.1664 50.2302 8.37045 48.2071 6.33862C46.1839 4.31547 43.388 3.05643 40.3142 3.05643Z" fill="white"/>
<path fill-rule="evenodd" clip-rule="evenodd" d="M10.4618 13.754C11.1564 13.754 12.0855 13.2417 12.8235 13.6932C13.44 14.0753 13.058 14.3271 13.058 14.7178C13.058 14.9436 13.7874 15.3256 13.7874 16.0463C13.7874 16.6281 13.4835 16.8365 13.4835 17.3227C13.4835 17.5224 14.482 20.0405 14.4994 20.11C14.5515 20.4747 14.317 20.8133 15.4892 20.5354C16.3575 20.3357 17.0522 19.5108 17.113 18.8336C17.2953 18.8162 17.4169 18.7381 17.4863 18.5991C17.6079 18.356 17.33 18.0434 17.5905 17.6787C17.7208 17.5051 18.3807 17.3227 18.3807 16.8365C18.3807 16.411 18.0681 16.0289 18.0942 15.5774C18.1289 14.9957 18.3112 14.9175 18.6933 14.6049C19.0927 14.2837 20.0131 13.3893 20.0131 12.7294C20.0131 12.3821 19.5963 12.6686 19.2837 12.6686C18.8235 12.6686 18.728 12.4255 18.5196 12.165C18.2157 11.7916 17.9031 11.4269 17.8163 10.932C17.5732 9.57745 16.6701 10.0637 17.2172 9.4472C17.66 8.95227 16.9914 9.23881 15.8018 8.83939L15.1419 8.67441C14.8554 8.69177 14.9943 9.0391 14.6904 9.0391C14.4646 9.0391 14.3257 8.90017 14.126 8.82202C13.961 8.76124 13.605 8.69177 13.4227 8.67441C13.5095 8.29235 13.5095 8.21421 13.4227 7.83215C13.0059 7.92767 12.5023 7.98845 12.0855 8.0666C10.8612 8.30972 10.4531 8.0666 10.0189 9.13461C9.85395 9.53403 9.55872 9.59481 9.23745 9.93345C8.27363 10.932 8.83803 10.7757 8.75988 11.9392C8.74252 12.2171 8.70778 12.0695 8.76857 12.2518C8.84671 12.4689 9.2635 12.9378 9.42848 13.1549C9.66292 13.4761 9.92341 13.754 10.4618 13.754Z" fill="white"/>
<path d="M39.8628 7.92761C40.4445 7.92761 40.9742 8.16205 41.3563 8.54411C41.7383 8.92616 41.9728 9.44714 41.9728 10.0289C41.9728 10.6107 41.7383 11.1403 41.3563 11.5224C40.9742 11.9044 40.4445 12.1389 39.8628 12.1389C39.281 12.1389 38.76 11.9044 38.378 11.5224C37.9959 11.1403 37.7615 10.6107 37.7615 10.0289C37.7615 9.44714 37.9959 8.92616 38.378 8.54411C38.76 8.16205 39.281 7.92761 39.8628 7.92761Z" fill="white"/>
<path d="M39.8628 16.3762C40.4445 16.3762 40.9742 16.6107 41.3563 16.9927C41.7383 17.3748 41.9728 17.9044 41.9728 18.4775C41.9728 19.0593 41.7383 19.5889 41.3563 19.971C40.9742 20.3531 40.4445 20.5875 39.8628 20.5875C39.281 20.5875 38.76 20.3531 38.378 19.971C37.9959 19.5889 37.7615 19.0593 37.7615 18.4775C37.7615 17.9044 37.9959 17.3748 38.378 16.9927C38.76 16.6107 39.281 16.3762 39.8628 16.3762Z" fill="white"/>
<path d="M46.1927 14.2576C46.1927 14.8393 45.9583 15.3603 45.5762 15.7424C45.2029 16.1244 44.6732 16.3675 44.0914 16.3675C43.5097 16.3675 42.98 16.1244 42.5979 15.7424C42.2159 15.369 41.9814 14.8393 41.9814 14.2576C41.9814 13.6758 42.2159 13.1461 42.5979 12.7641C42.98 12.382 43.5097 12.1476 44.0914 12.1476C44.6732 12.1476 45.2029 12.382 45.5762 12.7641C45.9583 13.1461 46.1927 13.6758 46.1927 14.2576Z" fill="white"/>
<path d="M37.744 14.2576C37.744 14.8393 37.5095 15.369 37.1275 15.7424C36.7454 16.1244 36.2245 16.3675 35.6427 16.3675C35.0609 16.3675 34.5313 16.1244 34.1492 15.7424C33.7672 15.369 33.5327 14.8393 33.5327 14.2576C33.5327 13.6758 33.7672 13.1461 34.1492 12.7641C34.5313 12.382 35.0609 12.1476 35.6427 12.1476C36.2245 12.1476 36.7454 12.382 37.1275 12.7641C37.5095 13.1461 37.744 13.6758 37.744 14.2576Z" fill="white"/>
</svg>
